<svg width="228" height="27" viewBox="0 0 228 27" fill="none" xmlns="http://www.w3.org/2000/svg">
<path d="M16.748 9.972H11.312V5.976H6.344V21.564H11.312V17.568H16.748V27H0.908V0.539999H16.748V9.972ZM20.5252 0.539999H36.3292V27H20.5252V0.539999ZM30.9292 21.564V5.976H25.9252V21.564H30.9292ZM60.9504 0.539999H66.3504V27H60.9504V7.956L55.9464 12.888V27H50.5464V8.64L45.5424 13.572V27H40.1424V11.412L45.6864 5.976H40.1424V0.539999H55.9464V5.436L60.9504 0.539999ZM70.1658 0.539999H85.9698V27H70.1658V0.539999ZM80.5698 21.564V5.976H75.5658V21.564H80.5698ZM114.903 0.539999V27H109.503V21.348H104.499V27H99.0994V11.412L104.643 5.976H99.0994V0.539999H114.903ZM109.503 15.912V8.64L104.499 13.572V15.912H109.503ZM134.521 0.539999V21.204H124.117V27H118.717V0.539999H134.521ZM124.117 5.976V15.768H129.121V5.976H124.117ZM138.334 0.539999H154.138V27H138.334V0.539999ZM148.738 21.564V5.976H143.734V21.564H148.738ZM169.255 5.976H166.015V21.564H169.255V27H157.375V21.564H160.615V5.976H157.375V0.539999H169.255V5.976ZM188.415 0.539999V27H183.015V21.348H178.011V27H172.611V11.412L178.155 5.976H172.611V0.539999H188.415ZM183.015 15.912V8.64L178.011 13.572V15.912H183.015ZM208.032 0.539999V21.204H205.116L206.88 27H201.444L199.68 21.204H197.628V27H192.228V0.539999H208.032ZM197.628 5.976V15.768H202.632V5.976H197.628ZM221.422 21.564V27H215.986V21.564H221.422ZM221.422 19.008H215.986V14.076L222.25 7.848V6.012H217.282V11.196H211.846V0.575999H227.686V10.008L221.422 16.236V19.008Z" fill="white"/>
</svg>
