<svg width="153" height="35" viewBox="0 0 153 35" fill="none" xmlns="http://www.w3.org/2000/svg">
<path d="M16.748 17.972H11.312V13.976H6.344V29.564H11.312V25.568H16.748V35H0.908V8.54H16.748V17.972ZM36.3292 8.54V29.204H33.4132L35.1772 35H29.7412L27.9772 29.204H25.9252V35H20.5252V8.54H36.3292ZM25.9252 13.976V23.768H30.9292V13.976H25.9252ZM55.9464 35H40.1424V8.54H55.9464V24.488H45.5784V29.564H50.5104V27.548H55.9464V35ZM45.5784 13.976V19.052H50.5104V13.976H45.5784ZM45.2904 5.66L47.5224 0.223999H52.9584L50.7264 5.66H45.2904ZM71.4236 8.54L75.5996 12.608V30.932L71.4236 35H59.7596V8.54H71.4236ZM70.1636 28.736V14.768L69.3356 13.94H65.1956V29.564H69.3356L70.1636 28.736ZM90.7159 13.976H87.4759V29.564H90.7159V35H78.8359V29.564H82.0759V13.976H78.8359V8.54H90.7159V13.976ZM93.6401 8.54H113.764V18.98H108.364V13.976H106.42V35H100.984V13.976H99.0761V18.98H93.6401V8.54ZM117.135 8.54H132.939V35H117.135V8.54ZM127.539 29.564V13.976H122.535V29.564H127.539ZM136.752 8.54H152.556V16.676H147.156V13.976H142.152V15.704L152.556 26.108V35H136.752V26.864H142.152V29.564H147.156V28.16L136.752 17.828V8.54Z" fill="white"/>
</svg>
