<svg width="143" height="27" viewBox="0 0 143 27" fill="none" xmlns="http://www.w3.org/2000/svg">
<path d="M16.712 0.539999V27H11.312V21.348H6.308V27H0.908V11.412L6.452 5.976H0.908V0.539999H16.712ZM11.312 15.912V8.64L6.308 13.572V15.912H11.312ZM29.8416 27V0.539999H45.6456V7.992H40.2096V5.976H35.2776V11.052H41.7576V16.488H35.2776V21.564H40.2096V19.548H45.6456V27H29.8416ZM65.2988 21.564H68.7188V27H49.4588V0.539999H65.2988V21.564ZM54.8948 21.564H59.8628V5.976H54.8948V21.564ZM82.9253 0.539999H88.3253V27H72.5213V0.539999H77.9213V21.564H82.9253V0.539999ZM103.442 5.976H100.202V21.564H103.442V27H91.5625V21.564H94.8025V5.976H91.5625V0.539999H103.442V5.976ZM122.603 0.539999V21.204H112.199V27H106.799V0.539999H122.603ZM112.199 5.976V15.768H117.203V5.976H112.199ZM126.416 27V0.539999H142.22V7.992H136.784V5.976H131.852V11.052H138.332V16.488H131.852V21.564H136.784V19.548H142.22V27H126.416Z" fill="white"/>
</svg>
