<svg width="85" height="85" viewBox="0 0 85 85" fill="none" xmlns="http://www.w3.org/2000/svg">
<path d="M85 0H0V85H85V0Z" fill="#D50060"/>
<path d="M42.5 23C48.85 23 49.61 23 52.12 23.14C53.6299 23.1532 55.1258 23.4307 56.54 23.96C57.5636 24.3575 58.4932 24.9638 59.2697 25.7403C60.0462 26.5167 60.6525 27.4464 61.05 28.47C61.5793 29.8842 61.8568 31.3801 61.87 32.89C61.99 35.4 62.01 36.16 62.01 42.51C62.01 48.86 62.01 49.62 61.87 52.13C61.8568 53.6399 61.5793 55.1359 61.05 56.55C60.6525 57.5736 60.0462 58.5032 59.2697 59.2797C58.4932 60.0562 57.5636 60.6625 56.54 61.06C55.1258 61.5893 53.6299 61.8669 52.12 61.88C49.61 62 48.86 62.02 42.5 62.02C36.14 62.02 35.39 62.02 32.88 61.88C31.3701 61.8669 29.8742 61.5893 28.46 61.06C27.4364 60.6625 26.5068 60.0562 25.7303 59.2797C24.9538 58.5032 24.3475 57.5736 23.95 56.55C23.4207 55.1359 23.1432 53.6399 23.13 52.13C23.01 49.62 22.99 48.86 22.99 42.51C22.99 36.16 22.99 35.4 23.13 32.89C23.1432 31.3801 23.4207 29.8842 23.95 28.47C24.3475 27.4464 24.9538 26.5167 25.7303 25.7403C26.5068 24.9638 27.4364 24.3575 28.46 23.96C29.8742 23.4307 31.3701 23.1532 32.88 23.14C35.39 23.02 36.15 23 42.5 23ZM42.5 18.71C36.04 18.71 35.23 18.71 32.69 18.85C30.7145 18.8908 28.7601 19.2662 26.91 19.96C25.3156 20.5673 23.8678 21.505 22.6614 22.7114C21.455 23.9178 20.5173 25.3657 19.91 26.96C19.2161 28.8101 18.8408 30.7645 18.8 32.74C18.69 35.28 18.66 36.09 18.66 42.55C18.66 49.01 18.66 49.82 18.8 52.36C18.8408 54.3355 19.2161 56.2899 19.91 58.14C20.5173 59.7343 21.455 61.1822 22.6614 62.3886C23.8678 63.595 25.3156 64.5327 26.91 65.14C28.7601 65.8338 30.7145 66.2092 32.69 66.25C35.23 66.36 36.04 66.39 42.5 66.39C48.96 66.39 49.77 66.39 52.31 66.25C54.2855 66.2092 56.2399 65.8338 58.09 65.14C59.6844 64.5327 61.1322 63.595 62.3386 62.3886C63.545 61.1822 64.4827 59.7343 65.09 58.14C65.7839 56.2899 66.1592 54.3355 66.2 52.36C66.31 49.82 66.34 49.01 66.34 42.55C66.34 36.09 66.34 35.28 66.2 32.74C66.1592 30.7645 65.7839 28.8101 65.09 26.96C64.4827 25.3657 63.545 23.9178 62.3386 22.7114C61.1322 21.505 59.6844 20.5673 58.09 19.96C56.2399 19.2662 54.2855 18.8908 52.31 18.85C49.77 18.74 48.96 18.71 42.5 18.71Z" fill="white"/>
<path d="M42.5 30.28C40.0831 30.28 37.7205 30.9967 35.7109 32.3394C33.7014 33.6822 32.1351 35.5907 31.2102 37.8236C30.2853 40.0565 30.0433 42.5136 30.5148 44.884C30.9864 47.2545 32.1501 49.4318 33.8591 51.1408C35.5681 52.8498 37.7455 54.0137 40.116 54.4852C42.4864 54.9567 44.9435 54.7147 47.1764 53.7898C49.4093 52.8649 51.3178 51.2986 52.6606 49.2891C54.0033 47.2795 54.72 44.9169 54.72 42.5C54.72 39.2591 53.4326 36.1509 51.1409 33.8592C48.8492 31.5675 45.741 30.28 42.5 30.28ZM42.5 50.43C40.9316 50.43 39.3984 49.9649 38.0943 49.0936C36.7902 48.2222 35.7739 46.9837 35.1737 45.5347C34.5735 44.0857 34.4164 42.4912 34.7224 40.9529C35.0283 39.4147 35.7836 38.0017 36.8927 36.8926C38.0017 35.7836 39.4147 35.0283 40.953 34.7224C42.4912 34.4164 44.0857 34.5734 45.5347 35.1736C46.9837 35.7738 48.2222 36.7902 49.0936 38.0943C49.9649 39.3984 50.43 40.9316 50.43 42.5C50.43 44.6032 49.5945 46.6202 48.1074 48.1074C46.6202 49.5945 44.6032 50.43 42.5 50.43Z" fill="white"/>
<path d="M55.2 32.66C56.7795 32.66 58.06 31.3795 58.06 29.8C58.06 28.2205 56.7795 26.94 55.2 26.94C53.6205 26.94 52.34 28.2205 52.34 29.8C52.34 31.3795 53.6205 32.66 55.2 32.66Z" fill="white"/>
</svg>
