<svg width="85" height="85" viewBox="0 0 85 85" fill="none" xmlns="http://www.w3.org/2000/svg">
<path d="M85 0H0V85H85V0Z" fill="#0076B2"/>
<path d="M19.31 34.36H29.18V66.1H19.31V34.36ZM24.25 18.59C25.3813 18.59 26.4872 18.9255 27.4279 19.554C28.3685 20.1825 29.1017 21.0759 29.5346 22.121C29.9675 23.1662 30.0808 24.3163 29.8601 25.4259C29.6394 26.5355 29.0946 27.5547 28.2947 28.3546C27.4947 29.1546 26.4755 29.6994 25.3659 29.9201C24.2563 30.1408 23.1062 30.0275 22.061 29.5946C21.0158 29.1617 20.1225 28.4285 19.494 27.4879C18.8655 26.5472 18.53 25.4413 18.53 24.31C18.53 22.793 19.1326 21.3381 20.2053 20.2654C21.278 19.1926 22.733 18.59 24.25 18.59Z" fill="white"/>
<path d="M35.37 34.36H44.82V38.7H45C45.9466 37.0825 47.3143 35.752 48.9573 34.8504C50.6003 33.9487 52.4572 33.5097 54.33 33.58C64.33 33.58 66.16 40.15 66.16 48.69V66.1H56.3V50.67C56.3 46.99 56.24 42.25 51.18 42.25C46.12 42.25 45.26 46.25 45.26 50.4V66.1H35.41L35.37 34.36Z" fill="white"/>
</svg>
