<svg width="160" height="27" viewBox="0 0 160 27" fill="none" xmlns="http://www.w3.org/2000/svg">
<path d="M0.476 0.539999H20.6V10.98H15.2V5.976H13.256V27H7.82V5.976H5.912V10.98H0.476V0.539999ZM33.1505 0.539999H38.5865V27H33.1505V16.488H29.4065V27H23.9705V0.539999H29.4065V11.052H33.1505V0.539999ZM42.3924 27V0.539999H58.1964V7.992H52.7604V5.976H47.8284V11.052H54.3084V16.488H47.8284V21.564H52.7604V19.548H58.1964V27H42.3924ZM70.894 0.539999H91.018V10.98H85.618V5.976H83.674V27H78.238V5.976H76.33V10.98H70.894V0.539999ZM94.3885 27V0.539999H110.192V7.992H104.756V5.976H99.8245V11.052H106.304V16.488H99.8245V21.564H104.756V19.548H110.192V27H94.3885ZM129.81 0.539999V27H124.41V21.348H119.406V27H114.006V11.412L119.55 5.976H114.006V0.539999H129.81ZM124.41 15.912V8.64L119.406 13.572V15.912H124.41ZM154.431 0.539999H159.831V27H154.431V7.956L149.427 12.888V27H144.027V8.64L139.023 13.572V27H133.623V11.412L139.167 5.976H133.623V0.539999H149.427V5.436L154.431 0.539999Z" fill="black"/>
</svg>
